<?xml version="1.0" encoding="utf-8"?>
<!-- Generator: Adobe Illustrator 26.0.2, SVG Export Plug-In . SVG Version: 6.00 Build 0)  -->
<svg version="1.1" id="Layer_1" xmlns="http://www.w3.org/2000/svg" xmlns:xlink="http://www.w3.org/1999/xlink" x="0px" y="0px"
	 viewBox="0 0 1264 193" style="enable-background:new 0 0 1264 193;" xml:space="preserve">
<style type="text/css">
	.st0{fill:#D73252;}
	.st1{fill:#FFFFFF;}
	.st2{fill:#61DAFB;}
</style>
<path class="st0" d="M727.8,190.6V0H537.2v190.6H727.8z M600.8,63.6h63.5v63.5h-63.6L600.8,63.6z"/>
<path class="st0" d="M410.1,63.5h63.5V127h-63.5V63.5z"/>
<path class="st1" d="M891.1,154.8h-24.6l-8.2-22.3h-49.3l-8.2,22.4h-24.6l45.3-115.6h24.2L891.1,154.8z M815.9,113.6h35.6L833.6,65
	L815.9,113.6z"/>
<path class="st1" d="M980.7,151.7c0,12-3.6,21.6-10.7,28.9c-7.1,7.3-17.5,12.4-30.8,12.4c-16.9,0-30-7.8-39.6-21.1l12.5-11.8
	c7.5,8.5,19.3,17.2,33.3,12.4c10.3-3.5,12.5-13.4,12.5-20.3v-6.5h-1c-0.1,0.3-0.3,0.6-0.7,1.1c-0.7,1-1.4,1.9-2.3,2.7
	c-1.2,1.3-2.6,2.4-4.1,3.4c-2,1.2-4.2,2-6.5,2.6c-3,0.8-6.1,1.2-9.1,1.1c-10.1,0.2-19.7-4.2-26.2-12c-6.9-8-10.4-18.2-10.4-30.6
	c0-12.7,3.5-22.9,10.6-30.6s16-11.6,26.8-11.6c3.5,0,7.1,0.4,10.5,1.4c2.7,0.7,5.3,2,7.6,3.6c1.7,1.3,3.4,2.7,4.9,4.2
	c1,1,2,2.2,2.8,3.5l0.8,1.5h0.8l3.6-12.3h14.8L980.7,151.7z M953.8,97.4c-3.4-4.2-8.6-6.5-14-6.4c-5.3-0.1-10.3,2.4-13.5,6.6
	c-3.5,4.4-5.3,10.1-5.3,16.9c0,6.8,1.7,12.4,5.2,16.7c3.3,4.2,8.3,6.6,13.6,6.4c5.4,0.2,10.6-2.1,14.1-6.3c3.6-4.2,5.3-9.8,5.3-16.9
	C959.2,107.3,957.4,101.6,953.8,97.4z"/>
<path class="st1" d="M1067.4,145.1c-8.1,7.8-17.9,11.7-29.6,11.7c-11.8,0-21.7-3.9-29.8-11.7c-8.1-7.8-12.1-17.9-12.1-30.4
	c0-12.6,4-22.9,12.1-30.8c8.1-8,18-11.9,29.8-11.9c11.7,0,21.5,4,29.6,11.9c8.1,8,12.1,18.2,12.1,30.8
	C1079.5,127.2,1075.5,137.3,1067.4,145.1z M1051.6,131.9c3.6-4.4,5.4-10.2,5.4-17.5c0-7.2-1.8-13-5.4-17.4
	c-3.3-4.3-8.4-6.7-13.8-6.6c-5.5-0.1-10.6,2.3-14,6.6c-3.6,4.4-5.4,10.3-5.4,17.4c0,7.3,1.8,13.2,5.3,17.5
	c6.4,7.7,17.8,8.8,25.5,2.4C1050.1,133.5,1050.9,132.7,1051.6,131.9L1051.6,131.9z"/>
<path class="st1" d="M1146.6,93.3H1136c-5.5,0-9.9,1.8-13.2,5.3c-3.4,3.5-5,8.3-5.1,14.4v41.8h-22.8v-81h14.3l3.2,12h1.1
	c4.2-8,11.6-11.9,22.3-11.9h10.8L1146.6,93.3z"/>
<path class="st1" d="M1161.4,57.5c-2.6-2.5-3.9-5.9-3.8-9.4c-0.1-3.6,1.3-7,3.8-9.6c2.5-2.5,6-3.9,9.5-3.8c3.6-0.1,7,1.3,9.6,3.8
	c2.6,2.5,4,6,3.9,9.5c0.1,3.6-1.3,7-3.9,9.4c-2.6,2.4-6.1,3.8-9.6,3.7C1167.3,61.2,1163.9,59.9,1161.4,57.5z M1159.3,73.9h22.8v80.9
	h-22.9L1159.3,73.9z"/>
<path class="st1" d="M1208.4,144.8c-7.7-8-11.6-18.1-11.6-30.4s3.9-22.5,11.6-30.4c7.7-8,17.9-11.9,30.5-11.9
	c4.7-0.1,9.4,0.6,13.9,1.8c4.2,1.2,7.1,2.4,8.8,3.6l2.5,1.9l-5.9,16.6c-5.1-3.3-11.1-4.9-17.1-4.8c-5.8-0.2-11.3,2.1-15.2,6.4
	c-3.9,4.2-5.9,9.9-5.9,17c0,7.2,2,12.9,5.9,17.1c3.9,4.2,9,6.3,15.2,6.3c2.9,0,5.8-0.4,8.7-1.2c2.2-0.6,4.3-1.4,6.4-2.4l2.1-1.1
	l5.7,16.4c-0.6,0.5-1.6,1.2-2.8,2c-1.2,0.8-3.9,2-8.2,3.4c-4.5,1.5-9.2,2.2-14,2.1C1226.3,156.7,1216.1,152.7,1208.4,144.8z"/>
<g>
	<path class="st2" d="M193.7,95.4c0-12.8-16.1-25-40.7-32.5c5.7-25.1,3.2-45.1-8-51.5c-2.6-1.5-5.6-2.2-8.8-2.2v8.8
		c1.8,0,3.3,0.4,4.5,1c5.4,3.1,7.7,14.8,5.9,29.9c-0.4,3.7-1.1,7.6-2,11.6c-7.7-1.9-16.2-3.4-25.1-4.3c-5.3-7.3-10.9-13.9-16.4-19.7
		c12.9-12,25-18.5,33.2-18.5V9.1c-10.9,0-25.1,7.7-39.4,21.2c-14.4-13.3-28.6-21-39.4-21v8.8c8.2,0,20.3,6.5,33.2,18.4
		C85,42.3,79.4,48.9,74.2,56.2c-8.9,0.9-17.4,2.4-25.1,4.3c-0.9-3.9-1.6-7.8-2.1-11.4c-1.9-15.1,0.4-26.8,5.8-29.9
		c1.2-0.7,2.7-1,4.5-1V9.3c-3.3,0-6.3,0.7-8.9,2.2c-11.1,6.4-13.6,26.3-7.9,51.4C16,70.4,0,82.6,0,95.4c0,12.8,16.1,25,40.7,32.5
		c-5.7,25.1-3.2,45.1,8,51.5c2.6,1.5,5.6,2.2,8.9,2.2c10.9,0,25.1-7.7,39.4-21.2c14.4,13.3,28.6,21,39.4,21c3.3,0,6.3-0.7,8.9-2.2
		c11.1-6.4,13.6-26.3,7.9-51.4C177.7,120.3,193.7,108.2,193.7,95.4L193.7,95.4z M142.3,69c-1.5,5.1-3.3,10.3-5.3,15.6
		c-1.6-3.2-3.3-6.3-5.2-9.5c-1.8-3.2-3.8-6.2-5.7-9.2C131.7,66.7,137.1,67.8,142.3,69L142.3,69z M124.2,111.1
		c-3.1,5.3-6.2,10.4-9.5,15.1c-5.9,0.5-11.8,0.8-17.8,0.8c-6,0-11.9-0.3-17.8-0.8c-3.3-4.7-6.5-9.7-9.6-15c-3-5.2-5.7-10.4-8.2-15.7
		c2.4-5.3,5.2-10.6,8.2-15.8c3.1-5.3,6.2-10.4,9.5-15.1c5.9-0.5,11.8-0.8,17.8-0.8c6,0,11.9,0.3,17.8,0.8c3.3,4.7,6.5,9.7,9.6,15
		c3,5.2,5.7,10.4,8.2,15.7C129.9,100.6,127.2,105.9,124.2,111.1L124.2,111.1z M137,105.9c2.1,5.3,3.9,10.6,5.4,15.7
		c-5.2,1.3-10.6,2.3-16.3,3.2c1.9-3,3.9-6.2,5.7-9.4C133.6,112.3,135.3,109.1,137,105.9L137,105.9z M96.9,148.1
		c-3.7-3.8-7.3-8-11-12.6c3.6,0.2,7.2,0.3,10.9,0.3c3.7,0,7.4-0.1,11-0.3C104.2,140.1,100.6,144.3,96.9,148.1z M67.6,124.8
		c-5.6-0.8-11-1.9-16.2-3.1c1.5-5.1,3.3-10.3,5.3-15.6c1.6,3.2,3.3,6.3,5.2,9.5S65.6,121.8,67.6,124.8z M96.7,42.7
		c3.7,3.8,7.3,8,11,12.6c-3.6-0.2-7.2-0.3-10.9-0.3c-3.7,0-7.4,0.1-11,0.3C89.4,50.7,93.1,46.4,96.7,42.7z M67.5,65.9
		c-1.9,3-3.9,6.2-5.7,9.4c-1.8,3.2-3.5,6.3-5.1,9.5c-2.1-5.3-3.9-10.6-5.4-15.7C56.4,67.8,61.9,66.7,67.5,65.9L67.5,65.9z
		 M31.8,115.3c-14-6-23-13.8-23-20c0-6.2,9-14.1,23-20c3.4-1.5,7.1-2.8,10.9-4c2.3,7.7,5.2,15.8,8.9,24c-3.6,8.2-6.6,16.2-8.8,23.9
		C38.9,118.1,35.2,116.8,31.8,115.3L31.8,115.3z M53,171.8c-5.4-3.1-7.7-14.8-5.9-29.9c0.4-3.7,1.1-7.6,2-11.6
		c7.7,1.9,16.2,3.4,25.1,4.3c5.3,7.3,10.9,13.9,16.4,19.7c-12.9,12-25,18.5-33.2,18.5C55.7,172.8,54.2,172.4,53,171.8L53,171.8z
		 M146.7,141.7c1.9,15.1-0.4,26.8-5.8,29.9c-1.2,0.7-2.7,1-4.5,1c-8.2,0-20.3-6.5-33.2-18.4c5.5-5.8,11.1-12.4,16.3-19.7
		c8.9-0.9,17.4-2.4,25.1-4.3C145.5,134.2,146.2,138,146.7,141.7z M161.9,115.3c-3.4,1.5-7.1,2.8-10.9,4c-2.3-7.7-5.2-15.8-8.9-24
		c3.6-8.2,6.6-16.2,8.8-23.9c3.9,1.2,7.6,2.6,11.1,4c14,6,23,13.8,23,20C184.9,101.6,175.8,109.4,161.9,115.3L161.9,115.3z"/>
	<circle class="st2" cx="96.8" cy="95.4" r="18"/>
	<path class="st2" d="M136.1,9.1"/>
</g>
<g>
	<g>
		<path class="st1" d="M266.4,105V90h69.3v15H266.4z M293.1,131.3V63.7H309v67.6H293.1z"/>
	</g>
</g>
</svg>
