<?xml version="1.0" encoding="utf-8"?>
<!-- Generator: Adobe Illustrator 26.0.2, SVG Export Plug-In . SVG Version: 6.00 Build 0)  -->
<svg version="1.1" id="Layer_1" xmlns="http://www.w3.org/2000/svg" xmlns:xlink="http://www.w3.org/1999/xlink" x="0px" y="0px"
	 viewBox="0 0 1955.9 193" style="enable-background:new 0 0 1955.9 193;" xml:space="preserve">
<style type="text/css">
	.st0{fill:#BB2D40;}
	.st1{fill:#C02D40;}
</style>
<path class="st0" d="M317.7,190.6V0H127.1v190.6H317.7z M190.7,63.6h63.5v63.5h-63.6L190.7,63.6z"/>
<path class="st0" d="M0,63.5h63.5V127H0V63.5z"/>
<path d="M481,154.8h-24.6l-8.1-22.3H399l-8.2,22.4h-24.6l45.3-115.6h24.2L481,154.8z M405.8,113.6h35.6L423.5,65L405.8,113.6z"/>
<path d="M570.6,151.7c0,12-3.6,21.6-10.7,28.9c-7.1,7.3-17.5,12.4-30.8,12.4c-16.9,0-30-7.8-39.6-21.1l12.5-11.8
	c7.5,8.5,19.3,17.2,33.3,12.4c10.3-3.5,12.5-13.4,12.5-20.3v-6.5h-1c-0.1,0.3-0.3,0.6-0.7,1.1c-0.7,1-1.4,1.9-2.3,2.7
	c-1.2,1.3-2.6,2.4-4.1,3.4c-2,1.2-4.2,2-6.5,2.6c-3,0.8-6.1,1.2-9.1,1.1c-10.1,0.2-19.7-4.2-26.2-12c-6.9-8-10.4-18.2-10.4-30.6
	c0-12.7,3.5-22.9,10.6-30.6s16-11.6,26.8-11.6c3.5,0,7.1,0.4,10.5,1.4c2.7,0.7,5.3,2,7.6,3.6c1.7,1.3,3.4,2.7,4.9,4.2
	c1,1,2,2.2,2.8,3.5l0.8,1.5h0.8l3.6-12.3h14.8L570.6,151.7z M543.7,97.4c-3.4-4.2-8.6-6.5-14-6.4c-5.3-0.1-10.3,2.4-13.5,6.6
	c-3.5,4.4-5.3,10.1-5.3,16.9s1.7,12.4,5.2,16.7c3.3,4.2,8.3,6.6,13.6,6.4c5.4,0.2,10.6-2.1,14.1-6.3c3.6-4.2,5.3-9.8,5.3-16.9
	S547.3,101.6,543.7,97.4z"/>
<path d="M657.3,145.1c-8.1,7.8-17.9,11.7-29.6,11.7c-11.8,0-21.7-3.9-29.8-11.7c-8.1-7.8-12.1-17.9-12.1-30.4
	c0-12.6,4-22.9,12.1-30.8c8.1-8,18-11.9,29.8-11.9c11.7,0,21.5,4,29.6,11.9c8.1,8,12.1,18.2,12.1,30.8
	C669.4,127.2,665.4,137.3,657.3,145.1z M641.5,131.9c3.6-4.4,5.4-10.2,5.4-17.5c0-7.2-1.8-13-5.4-17.4c-3.3-4.3-8.4-6.7-13.8-6.6
	c-5.5-0.1-10.6,2.3-14,6.6c-3.6,4.4-5.4,10.3-5.4,17.4c0,7.3,1.8,13.2,5.3,17.5c6.4,7.7,17.8,8.8,25.5,2.4
	C640,133.5,640.8,132.7,641.5,131.9L641.5,131.9z"/>
<path d="M736.5,93.3h-10.6c-5.5,0-9.9,1.8-13.2,5.3c-3.4,3.5-5,8.3-5,14.4v41.8h-22.8v-81h14.3l3.2,12h1.1
	c4.2-8,11.6-11.9,22.3-11.9h10.8L736.5,93.3z"/>
<path d="M751.3,57.5c-2.6-2.5-3.9-5.9-3.8-9.4c-0.1-3.6,1.3-7,3.8-9.6c2.5-2.5,6-3.9,9.5-3.8c3.6-0.1,7,1.3,9.6,3.8s4,6,3.9,9.5
	c0.1,3.6-1.3,7-3.9,9.4c-2.6,2.4-6.1,3.8-9.6,3.7C757.2,61.2,753.8,59.9,751.3,57.5z M749.2,73.9H772v80.9h-22.9L749.2,73.9z"/>
<path d="M798.3,144.8c-7.7-8-11.6-18.1-11.6-30.4s3.9-22.5,11.6-30.4c7.7-8,17.9-11.9,30.5-11.9c4.7-0.1,9.4,0.6,13.9,1.8
	c4.2,1.2,7.1,2.4,8.8,3.6l2.5,1.9L848.1,96c-5.1-3.3-11.1-4.9-17.1-4.8c-5.8-0.2-11.3,2.1-15.2,6.4c-3.9,4.2-5.9,9.9-5.9,17
	c0,7.2,2,12.9,5.9,17.1c3.9,4.2,9,6.3,15.2,6.3c2.9,0,5.8-0.4,8.7-1.2c2.2-0.6,4.3-1.4,6.4-2.4l2.1-1.1l5.7,16.4
	c-0.6,0.5-1.6,1.2-2.8,2s-3.9,2-8.2,3.4c-4.5,1.5-9.2,2.2-14,2.1C816.2,156.7,806,152.8,798.3,144.8z"/>
<g>
	<g>
		<path class="st1" d="M924.9,154.9V39.5h47.5c10.2,0,19,1.6,26.2,4.9c7.4,3.3,12.9,7.9,16.9,14.1c4,6.1,5.9,13.5,5.9,22.1
			c0,8.5-1.9,15.7-5.9,21.7s-9.6,10.7-16.9,14c-7.4,3.3-16.1,5-26.2,5h-35.5l9.4-9.6v43.2L924.9,154.9L924.9,154.9z M946.3,114
			l-9.4-10.4h34.4c9.5,0,16.5-2,21.4-6.1c4.8-4.1,7.1-9.7,7.1-17c0-7.2-2.4-12.9-7.1-16.9c-4.8-4-11.9-6-21.4-6h-34.4l9.4-10.5V114z
			 M1000.4,154.9L971.2,113h23l29.3,41.9H1000.4z"/>
		<path class="st1" d="M1084.8,156.1c-9.7,0-18.3-1.9-25.7-5.9c-7.4-3.8-13-9.3-17-16c-4-6.8-6-14.5-6-23.3s1.9-16.5,5.9-23.3
			c3.8-6.8,9.3-12.1,16.2-16c6.9-3.8,14.7-5.9,23.5-5.9c8.6,0,16.2,1.9,23,5.7c6.7,3.8,12,9.1,15.8,16c3.8,6.8,5.8,14.9,5.8,24.2
			c0,0.8,0,1.7-0.1,2.8c0,1.1-0.1,2.1-0.2,3.1h-73.3v-13.7h62.5l-8.3,4.3c0.1-5-0.9-9.4-3.1-13.2c-2.1-3.8-5.1-6.9-8.8-9.1
			c-3.7-2.1-8.1-3.2-13.2-3.2c-5,0-9.4,1-13.2,3.2c-3.8,2.1-6.9,5.2-8.9,9.2s-3.2,8.5-3.2,13.7v3.3c0,5.3,1.1,10,3.5,14
			c2.4,4.1,5.8,7.2,10.2,9.5c4.4,2.3,9.5,3.4,15.3,3.4c5,0,9.4-0.8,13.4-2.5s7.5-4.1,10.5-7.2l11.2,12.9c-4.1,4.6-9.1,8.1-15,10.5
			C1099.4,154.9,1092.5,156.1,1084.8,156.1z"/>
		<path class="st1" d="M1172.5,156.1c-6.6,0-12.3-1.1-17.3-3.4s-8.7-5.4-11.4-9.4s-4.1-8.6-4.1-13.6s1.1-9.4,3.5-13.4
			c2.4-4,6.2-7.1,11.7-9.4c5.4-2.3,12.6-3.5,21.4-3.5h25.6v13.7h-24.1c-6.9,0-11.7,1.1-14.1,3.4c-2.4,2.3-3.7,5.1-3.7,8.5
			c0,3.6,1.5,6.6,4.4,8.7c2.9,2.1,7.1,3.3,12.3,3.3c5.1,0,9.6-1.1,13.6-3.5c4-2.3,6.9-5.7,8.8-10.2l3.3,12.3
			c-1.9,5.2-5.5,9.2-10.5,12C1187,154.6,1180.4,156.1,1172.5,156.1z M1200.2,154.9v-18l-1-3.6v-31.1c0-6-1.8-10.7-5.5-14.1
			c-3.7-3.4-9.3-5-16.7-5c-4.9,0-9.6,0.8-14.4,2.3c-4.8,1.6-8.8,3.7-12.2,6.4l-8-15c4.9-3.6,10.5-6.3,17-8.3
			c6.4-1.9,13.2-2.8,20.3-2.8c12.9,0,22.7,3.1,29.6,9.3c6.9,6.1,10.4,15.6,10.4,28.4V155L1200.2,154.9L1200.2,154.9z"/>
		<path class="st1" d="M1286.4,156.1c-9.3,0-17.4-1.9-24.7-5.9c-7.2-3.8-12.8-9.3-16.9-16c-4.1-6.8-6.1-14.5-6.1-23.3
			c0-8.9,2-16.7,6.1-23.4c4.1-6.7,9.7-12,16.9-16c7.2-3.8,15.4-5.9,24.7-5.9c8.5,0,16,1.8,22.6,5.3c6.6,3.5,11.5,8.6,14.8,15.3
			l-15.6,9.3c-2.6-4.1-5.9-7.1-9.6-9.2c-3.8-2-7.9-3.1-12.3-3.1c-5.1,0-9.6,1.1-13.7,3.4c-4.1,2.3-7.2,5.4-9.6,9.6
			c-2.3,4.1-3.5,8.9-3.5,14.6s1.1,10.5,3.5,14.7c2.3,4.2,5.5,7.4,9.6,9.6c4.1,2.3,8.6,3.4,13.7,3.4c4.4,0,8.5-1,12.3-3.1
			c3.8-2,7-5.1,9.6-9.3l15.6,9.3c-3.3,6.6-8.3,11.7-14.8,15.3C1302.4,154.3,1294.9,156.1,1286.4,156.1z"/>
		<path class="st1" d="M1330.1,84V67.5h58.7V84H1330.1z M1374.9,156.1c-9.6,0-17.2-2.5-22.4-7.5c-5.3-5-7.9-12.3-7.9-22.1v-79h20.5
			V126c0,4.2,1.1,7.5,3.3,9.7c2.1,2.3,5.3,3.5,9.3,3.5c4.5,0,8.3-1.2,11.2-3.6l5.9,14.7c-2.5,1.9-5.5,3.5-9.1,4.4
			C1382.1,155.5,1378.5,156.1,1374.9,156.1z"/>
		<path class="st1" d="M1459.2,154.9V39.5h50.6c12.3,0,23.2,2.4,32.7,7.1c9.5,4.8,16.9,11.5,22.2,20.1c5.3,8.7,7.9,18.8,7.9,30.3
			s-2.6,21.6-7.9,30.3s-12.7,15.4-22.2,20.1c-9.5,4.8-20.4,7.1-32.7,7.1h-50.6V154.9z M1480.6,136.8h27.8c8.7,0,16.2-1.7,22.5-5
			s11.3-7.9,14.8-13.8c3.6-5.9,5.3-12.9,5.3-20.8c0-8.1-1.8-15.2-5.3-20.9c-3.6-5.8-8.5-10.4-14.8-13.7s-13.8-5-22.5-5h-27.8V136.8z
			"/>
		<path class="st1" d="M1634.7,156.1c-9.7,0-18.3-1.9-25.7-5.9c-7.4-3.8-13-9.3-17-16c-4-6.8-6-14.5-6-23.3s1.9-16.5,5.9-23.3
			c3.8-6.8,9.3-12.1,16.2-16c6.9-3.9,14.7-5.9,23.5-5.9c8.6,0,16.2,1.9,23,5.7c6.7,3.8,12,9.1,15.8,16c3.8,6.8,5.8,14.9,5.8,24.2
			c0,0.8,0,1.7-0.1,2.8c0,1.1-0.1,2.1-0.2,3.1h-73.3v-13.7h62.5l-8.3,4.3c0.1-5-0.9-9.4-3.1-13.2c-2.1-3.8-5.1-6.9-8.8-9.1
			c-3.7-2.1-8.1-3.2-13.2-3.2c-5,0-9.4,1-13.2,3.2c-3.8,2.1-6.9,5.2-8.9,9.2s-3.2,8.5-3.2,13.7v3.3c0,5.3,1.1,10,3.5,14
			c2.4,4.1,5.8,7.2,10.2,9.5c4.4,2.3,9.5,3.4,15.3,3.4c5,0,9.4-0.8,13.4-2.5s7.5-4.1,10.5-7.2l11.2,12.9c-4.1,4.6-9.1,8.1-15,10.5
			C1649.2,154.9,1642.3,156.1,1634.7,156.1z"/>
		<path class="st1" d="M1807,65.7c7,0,13.2,1.4,18.7,4.1c5.4,2.7,9.7,7,12.8,12.7c3.1,5.8,4.6,13,4.6,21.9v50.5h-20.5V107
			c0-7.8-1.7-13.6-5.2-17.4c-3.5-3.8-8.4-5.8-14.7-5.8c-4.5,0-8.5,1-12,2.9c-3.5,1.9-6.1,4.9-8,8.8c-1.9,3.8-2.8,8.7-2.8,14.6v44.7
			h-20.6v-47.9c0-7.8-1.7-13.6-5.2-17.4s-8.4-5.8-14.7-5.8c-4.5,0-8.5,1-12,2.9c-3.5,1.9-6.1,4.9-8,8.8c-1.9,3.8-2.8,8.7-2.8,14.6
			v44.7h-20.5v-88h19.6v23.5l-3.6-7.1c2.9-5.7,7.2-10,12.9-13s12.2-4.6,19.6-4.6c8.3,0,15.4,2,21.4,6.1s10.1,10.3,12,18.8l-7.9-2.9
			c2.7-6.4,7.5-11.8,14-15.8C1790.7,67.7,1798.3,65.7,1807,65.7z"/>
		<path class="st1" d="M1909,156.1c-8.9,0-16.9-1.9-24-5.9c-7.1-3.8-12.7-9.3-16.7-16.1c-4.1-6.8-6.1-14.6-6.1-23.2
			c0-8.9,2-16.7,6.1-23.4c4.1-6.7,9.6-12,16.6-16c7-3.8,15-5.9,24.1-5.9c9.2,0,17.2,1.9,24.3,5.9c7.1,3.8,12.7,9.2,16.6,16
			c4,6.7,6,14.5,6,23.4c0,8.8-2,16.5-6,23.3c-4,6.8-9.6,12.1-16.7,16C1926.1,154.1,1918,156.1,1909,156.1z M1909,138.6
			c5.1,0,9.6-1.1,13.5-3.4c4-2.3,7-5.5,9.3-9.7c2.3-4.2,3.4-9.1,3.4-14.6c0-5.7-1.1-10.5-3.4-14.6s-5.3-7.4-9.3-9.6
			c-4-2.3-8.4-3.4-13.4-3.4s-9.4,1.1-13.4,3.4c-4,2.3-7.1,5.4-9.4,9.6c-2.3,4.1-3.5,8.9-3.5,14.6c0,5.5,1.1,10.4,3.5,14.6
			c2.3,4.2,5.4,7.5,9.4,9.7S1904.1,138.6,1909,138.6z"/>
	</g>
</g>
</svg>
